<svg width="16" height="16" viewBox="0 0 16 16" fill="none" xmlns="http://www.w3.org/2000/svg">
<path d="M14.6666 6.73337C14.7333 6.40004 14.4666 6.00004 14.1333 6.00004L10.3333 5.46671L8.59992 2.00004C8.53325 1.86671 8.46659 1.80004 8.33325 1.73337C7.99992 1.53337 7.59992 1.66671 7.39992 2.00004L5.73325 5.46671L1.93325 6.00004C1.73325 6.00004 1.59992 6.06671 1.53325 6.20004C1.26659 6.46671 1.26659 6.86671 1.53325 7.13337L4.26659 9.80004L3.59992 13.6C3.59992 13.7334 3.59992 13.8667 3.66659 14C3.86659 14.3334 4.26659 14.4667 4.59992 14.2667L7.99992 12.4667L11.3999 14.2667C11.4666 14.3334 11.5999 14.3334 11.7333 14.3334C11.7999 14.3334 11.7999 14.3334 11.8666 14.3334C12.1999 14.2667 12.4666 13.9334 12.3999 13.5334L11.7333 9.73337L14.4666 7.06671C14.5999 7.00004 14.6666 6.86671 14.6666 6.73337Z" fill="#FFCF55"/>
</svg>
